<svg width="100" height="100" xmlns="http://www.w3.org/2000/svg" xml:space="preserve" version="1.1">
 <defs>
  <linearGradient y2="0.53397" x2="0.57203" y1="0.00654" x1="0.10044" id="XMLID_29_">
   <stop stop-color="#EF8200" offset="0"/>
   <stop stop-color="#F9BE00" offset="1"/>
  </linearGradient>
  <linearGradient y2="-0.47651" x2="0.4555" y1="0.99383" x1="0.54465" id="XMLID_30_">
   <stop stop-color="#004097" offset="0"/>
   <stop stop-color="#009CE1" offset="1"/>
  </linearGradient>
  <linearGradient y2="0.85216" x2="1.06285" y1="0.33527" x1="-0.21845" id="XMLID_31_">
   <stop stop-color="#003893" offset="0"/>
   <stop stop-color="#009CE1" offset="1"/>
  </linearGradient>
 </defs>
 <g>
  <title>Layer 1</title>
  <g id="XMLID_2_">
   <path fill="url(#XMLID_29_)" clip-rule="evenodd" fill-rule="evenodd" d="m53.4,98.4c-18.9,-44.8 2.6,-51 42.3,-46.8c1,0.1 1.8,0.7 2.2,1.5c0.4,0.9 0.4,1.9 -0.1,2.7c-0.3,0.5 -0.7,1 -1.1,1.5c-5.8,6.7 -12,13.3 -18.6,19.9c-6.6,6.6 -13.3,12.8 -19.9,18.6c-1.5,1.3 -3.1,2.1 -4.8,2.6l0,0z" class="st1" id="XMLID_5_"/>
   <path fill="url(#XMLID_30_)" clip-rule="evenodd" fill-rule="evenodd" d="m22.5,21.7c6.6,-6.6 13.3,-12.8 19.9,-18.5c2,-1.7 4.4,-2.7 6.9,-2.9c3.4,-0.3 5.9,0.6 8.4,2.6c-0.4,-0.1 -4.9,-2.3 -9.5,5.7c-6.9,12.1 -10.8,26.1 -10.8,40.9c0,16.2 4.7,31.4 12.7,44.1c1,1.6 2.1,3.2 3.2,4.7c-0.5,0.1 -1.1,0.2 -1.6,0.3c-3.3,0.4 -6.7,-0.5 -9.3,-2.8c-6.7,-5.8 -13.3,-12 -19.9,-18.5c-6.6,-6.6 -12.8,-13.3 -18.5,-20c-4,-4.5 -4,-11.1 0,-15.6c5.7,-6.7 11.9,-13.4 18.5,-20z" class="st2" id="XMLID_4_"/>
   <path fill="url(#XMLID_31_)" clip-rule="evenodd" fill-rule="evenodd" d="m57,2.3c0.4,0.3 0.8,0.5 1.1,0.9c6.7,5.8 13.3,12 19.9,18.6c3.7,3.7 7.3,7.4 10.7,11.1c-22.7,-2.7 -40.3,0.6 -50.8,7.9c1.2,-11.6 4.8,-22.5 10.3,-32.2c4.6,-8 9,-5.9 9.5,-5.7c-0.2,-0.2 -0.4,-0.4 -0.7,-0.6z" class="st3" id="XMLID_3_"/>
  </g>
 </g>
</svg>