<svg width="637.74841" height="542.82823" xmlns="http://www.w3.org/2000/svg" data-name="Layer 1">

 <g>
  <title>Layer 1</title>
  <path id="svg_1" fill="#ffb6b6" d="m354.64083,79.53967a10.13238,10.13238 0 0 0 14.52638,5.51145l87.876,28.18777l29.08427,-22.818l-113.34903,-19.84706a10.18731,10.18731 0 0 0 -18.13762,8.96584z"/>
  <path id="svg_2" fill="#f2f2f2" d="m517.40557,117.20903s-0.79628,-1.95253 -11.31124,2.296c-13.05191,5.27351 -82.53736,1.748 -86.388,-17.19775a7.95987,7.95987 0 0 1 -9.66118,1.37546l10.86245,-23.84162c5.65419,-1.80746 8.72681,-3.14475 9.09242,-0.84209l17,-1l68.85019,11.58981l1.90309,23.766l-0.34773,3.85419z"/>
  <polygon id="svg_3" fill="#f2f2f2" points="495.75299072265625,93.30599975585938 529.9450073242188,90.34600067138672 562,104.9990005493164 580,353.9989929199219 509.36199951171875,321.33099365234375 479.05499267578125,329.71600341796875 495.75299072265625,93.30599975585938 "/>
  <polygon id="svg_4" fill="#ffb6b6" points="579.8740234375,527.8740234375 566.905029296875,527.8729858398438 560.7349853515625,477.8479919433594 579.8759765625,477.8489990234375 579.8740234375,527.8740234375 "/>
  <path id="svg_5" fill="#2f2e41" d="m583.18168,540.44555l-41.81888,-0.00155l0,-0.52894a16.27795,16.27795 0 0 1 16.27708,-16.27681l0.001,0l7.63877,-5.79518l14.25224,5.79606l3.65053,0.00015l-0.00074,16.80627z"/>
  <polygon id="svg_6" fill="#ffb6b6" points="529.614990234375,519.7009887695312 516.9639892578125,522.5570068359375 499.9259948730469,475.1199951171875 518.5979919433594,470.90399169921875 529.614990234375,519.7009887695312 "/>
  <path id="svg_7" fill="#2f2e41" d="m535.61055,531.23528l-40.792,9.21027l-0.11651,-0.51595a16.278,16.278 0 0 1 12.29181,-19.46248l0.001,-0.00022l6.17459,-7.33548l15.17892,2.51423l3.56089,-0.804l3.7013,16.39363z"/>
  <path id="svg_8" fill="#2f2e41" d="m596.30043,222.04676c6.0807,18.33936 5.43784,38.24623 -1.46158,59.6117l-2.9494,120.29312c4.87592,5.366 5.62148,53.38029 -1.88944,69.0474c-10.02979,20.92121 -0.80606,23.718 -7.89591,37.59769l-20.56449,0l-9.50453,-62.88069l-0.67725,-50.96857c-2.73126,-6.46673 -0.489,-29.22505 -0.489,-29.22505l-0.78962,-47.19124l-37.0792,82.66786c16.79895,14.37891 15.28678,60.82558 15.56412,81.4269l5.508,24.30944l-25.31,2.26263l-11.16924,-32.96694l-12.55779,-20.31505c-6.39947,-35.99579 -8.29687,-62.42151 -2.841,-73.21588l37.22187,-138.48633l76.88446,-21.96699z"/>
  <path id="svg_9" fill="#3f3d56" d="m598.9351,215.92594l-3.39,-6.78c-4.15,-25.71 -8.25,-49.69 -2.68,-71.26c0.35,-18.83 -5.47,-36.52 -21.63,-46.18l-7.29,-4.36l-3.69,-9.36l-33.98,0.83l-0.1,12.27l-12.17,19.41l0,0.08l0.76,105.62l3.36005,10.9l-5.07,12.68l2.69,8.09l66.99,-10.71l7.79,-1.25a13.91763,13.91763 0 0 0 2.59,-1.13a14.23178,14.23178 0 0 0 6.22,-6.95c0.07,-0.17 0.13,-0.33 0.19,-0.5a13.93382,13.93382 0 0 0 0.9,-4.3a14.30328,14.30328 0 0 0 -1.49005,-7.1z"/>
  <path id="svg_10" opacity="0.2" d="m600.42509,223.02598a13.93382,13.93382 0 0 1 -0.9,4.3l-6.41,7.45a13.91763,13.91763 0 0 1 -2.59,1.13l-7.79,1.25l11.27,-21.19l-24.77,-54.23l31.19,61.29z"/>
  <path id="svg_11" fill="#f2f2f2" d="m74.12745,442.12747a148.84015,148.84015 0 0 1 -23.51977,-1.62835c-7.24828,-1.22622 -10.92363,-2.96749 -10.92363,-5.17576l0.0027,-0.03994l13.52173,-102.9503l-6.81012,-19.52217a5.40874,5.40874 0 0 1 5.16345,-7.18972l44.7844,0.4664a5.40864,5.40864 0 0 1 5.07455,7.11885l-6.37465,19.12424l13.522,102.95268c0.00273,5.41123 -21.64782,6.84407 -34.44066,6.84407z"/>
  <rect id="svg_12" fill="#ccc" height="1.23012" width="21.8758" y="427.6351" x="48.60242"/>
  <rect id="svg_13" fill="#ccc" height="1.23012" width="21.8758" y="420.25437" x="48.60242"/>
  <rect id="svg_14" fill="#ccc" height="1.23012" width="21.8758" y="412.87365" x="48.60242"/>
  <rect id="svg_15" fill="#ccc" height="1.23012" width="21.8758" y="405.49292" x="48.60242"/>
  <rect id="svg_16" fill="#ccc" height="1.23012" width="21.8758" y="398.11219" x="48.60242"/>
  <path id="svg_17" fill="#f2f2f2" d="m270.94685,442.12747a148.84015,148.84015 0 0 1 -23.51977,-1.62835c-7.24828,-1.22622 -10.92363,-2.96749 -10.92363,-5.17576l0.0027,-0.03994l13.52173,-102.9503l-6.81012,-19.52217a5.40874,5.40874 0 0 1 5.16345,-7.18972l44.7844,0.4664a5.40864,5.40864 0 0 1 5.07455,7.11885l-6.37465,19.12424l13.522,102.95268c0.0027,5.41123 -21.64782,6.84407 -34.44066,6.84407z"/>
  <rect id="svg_18" fill="#ccc" height="1.23012" width="21.8758" y="427.6351" x="245.42182"/>
  <rect id="svg_19" fill="#ccc" height="1.23012" width="21.8758" y="420.25437" x="245.42182"/>
  <rect id="svg_20" fill="#ccc" height="1.23012" width="21.8758" y="412.87365" x="245.42182"/>
  <rect id="svg_21" fill="#ccc" height="1.23012" width="21.8758" y="405.49292" x="245.42182"/>
  <rect id="svg_22" fill="#ccc" height="1.23012" width="21.8758" y="398.11219" x="245.42182"/>
  <path id="svg_23" fill="#f2f2f2" d="m178.68775,442.12747a148.8401,148.8401 0 0 1 -23.51976,-1.62835c-7.24828,-1.22622 -10.92363,-2.96749 -10.92363,-5.17576l0.0027,-0.03994l13.52172,-102.9503l-6.81011,-19.52217a5.40874,5.40874 0 0 1 5.16345,-7.18972l44.7844,0.4664a5.40864,5.40864 0 0 1 5.07455,7.11885l-6.37465,19.12424l13.522,102.95268c0.00273,5.41123 -21.64783,6.84407 -34.44067,6.84407z"/>
  <rect id="svg_24" fill="#ccc" height="1.23012" width="21.8758" y="427.6351" x="153.16273"/>
  <rect id="svg_25" fill="#ccc" height="1.23012" width="21.8758" y="420.25437" x="153.16273"/>
  <rect id="svg_26" fill="#ccc" height="1.23012" width="21.8758" y="412.87365" x="153.16273"/>
  <rect id="svg_27" fill="#ccc" height="1.23012" width="21.8758" y="405.49292" x="153.16273"/>
  <rect id="svg_28" fill="#ccc" height="1.23012" width="21.8758" y="398.11219" x="153.16273"/>
  <path id="svg_29" fill="#ccc" d="m324.14959,449.77729l-41.82412,0l0,-70.11691l41.82412,0a8.61085,8.61085 0 0 0 0,-17.2217l-291.53874,0a8.61085,8.61085 0 0 0 0,17.2217l35.67352,0l0,70.11691l-35.67352,0a8.61084,8.61084 0 0 0 0,17.22169l291.53874,0a8.61085,8.61085 0 1 0 0,-17.22169zm-238.64352,0l0,-70.11691l179.5977,0l0,70.11691l-179.5977,0z"/>
  <path id="svg_30" fill="#fff" d="m317.37669,540.56148c-21.39214,0 -41.34371,-1.38272 -56.17793,-3.89246c-18.30031,-3.09541 -27.19656,-7.59353 -27.19656,-13.75148l0.01,-0.19427l32.12035,-244.57829l-16.08124,-46.09895a14.15693,14.15693 0 0 1 1.89052,-13.07511a13.99809,13.99809 0 0 1 11.80167,-5.968l106.48788,1.1092a14.32488,14.32488 0 0 1 13.44083,18.85453l-15.05348,45.16118l32.12606,244.59973l0,0.09428c0.00357,6.63933 -10.06828,11.35314 -30.79048,14.41141c-20.35729,3.00398 -43.55067,3.32823 -52.57762,3.32823z"/>
  <path id="svg_31" fill="#3f3d56" d="m317.37669,540.56148c-21.39214,0 -41.34371,-1.38272 -56.17793,-3.89246c-18.30031,-3.09541 -27.19656,-7.59353 -27.19656,-13.75148l0.01,-0.19427l32.12035,-244.57829l-16.08124,-46.09895a14.15693,14.15693 0 0 1 1.89052,-13.07511a13.99809,13.99809 0 0 1 11.80167,-5.968l106.48788,1.1092a14.32488,14.32488 0 0 1 13.44083,18.85453l-15.05348,45.16118l32.12606,244.59973l0,0.09428c0.00357,6.63933 -10.06828,11.35314 -30.79048,14.41141c-20.35729,3.00398 -43.55067,3.32823 -52.57762,3.32823zm-53.92748,-324.63597a11.12691,11.12691 0 0 0 -9.13123,4.75238a11.26344,11.26344 0 0 0 -1.50413,10.40395l16.30979,46.7546l-0.045,0.34425l-32.15673,244.83256c0.00571,2.39833 3.22253,7.12785 24.76537,10.77034c14.67781,2.484 34.45511,3.85247 55.68941,3.85247c18.66455,0 38.16045,-1.23273 52.15048,-3.29681c17.87177,-2.63688 28.16717,-6.79932 28.29073,-11.42885l-32.18749,-245.06828l15.26633,-45.8004a11.4,11.4 0 0 0 -10.69536,-15.00421l-106.5043,-1.10917c-0.08287,-0.00212 -0.1657,-0.00283 -0.24787,-0.00283z"/>
  <path id="svg_32" opacity="0.5" fill="#6c63ff" d="m378.07921,492.99254l-121.405,0l19.24546,-130.13786l0.52426,-3.58693l8.01772,-54.17689c0.48909,-3.30482 4.29381,-0.73843 6.98389,-2.71943c16.70216,-12.29957 33.60422,-12.65628 50.653,-0.80149c2.63527,1.83245 6.27558,-0.31214 6.76722,2.85976l8.42285,54.34133l0.814,5.25628l19.9766,128.96523z"/>
  <path id="svg_33" fill="#6c63ff" d="m363.09567,511.21586l-91.56724,0a16.70586,16.70586 0 0 1 -16.52622,-19.15094l26.753,-180.909a5.30878,5.30878 0 0 1 8.58556,-3.34681c16.30479,13.06155 34.07515,12.76729 52.81613,-0.86991a5.21219,5.21219 0 0 1 5.10234,-0.59423a5.29753,5.29753 0 0 1 3.22611,4.10673l28.12,181.50035a16.70713,16.70713 0 0 1 -16.50977,19.26378l0.00009,0.00003z"/>
  <rect id="svg_34" fill="#fff" height="2.92542" width="52.02406" y="490.00656" x="274.22673"/>
  <rect id="svg_35" fill="#fff" height="2.92542" width="52.02406" y="472.45403" x="274.22673"/>
  <rect id="svg_36" fill="#fff" height="2.92542" width="52.02406" y="454.90151" x="274.22673"/>
  <rect id="svg_37" fill="#fff" height="2.92542" width="52.02406" y="437.34899" x="274.22673"/>
  <rect id="svg_38" fill="#fff" height="2.92542" width="52.02406" y="419.79646" x="274.22673"/>
  <path id="svg_39" fill="#fff" d="m360.55592,373.75029a39.41974,39.41974 0 0 1 -30.93635,11.32145c-6.46516,-0.58512 -12.35992,-2.99863 -18.03525,-6.041c-5.86539,-3.14486 -11.54071,-6.904 -18.03515,-8.65931c-5.69,-1.53583 -12.433,-1.74063 -17.31853,2.06247a2.37429,2.37429 0 0 1 -2.80838,0.07312l0.55584,-3.803c5.44124,-3.8031 12.05272,-4.38813 18.53251,-3.08639c13.04735,2.633 22.94993,13.42776 36.31912,14.97823a35.03422,35.03422 0 0 0 30.84848,-12.40385l0.01465,-0.01465l0.86306,5.57293z"/>
  <path id="svg_40" fill="#ccc" d="m637.74841,541.63823a1.18647,1.18647 0 0 1 -1.19006,1.19l-635.29,0a1.19,1.19 0 0 1 0,-2.38l635.29,0a1.18651,1.18651 0 0 1 1.19006,1.19z"/>
  <polygon id="svg_41" fill="#f2f2f2" points="529.7529907226562,90.30599975585938 563.9450073242188,87.34600067138672 596,101.9990005493164 614,350.9989929199219 543.3619995117188,318.33099365234375 513.0549926757812,326.71600341796875 529.7529907226562,90.30599975585938 "/>
  <circle id="svg_42" fill="#6c63ff" r="6" cy="83.99898" cx="361"/>
  <circle id="svg_43" fill="#6c63ff" r="6" cy="156.99898" cx="351"/>
  <circle id="svg_44" fill="#6c63ff" r="6" cy="199.99898" cx="319"/>
  <path id="svg_45" fill="#e6e6e6" d="m468.78563,252.4864l0,-64.40945a4.92267,4.92267 0 0 1 4.9171,-4.91711l48.64348,0a4.92266,4.92266 0 0 1 4.91708,4.91711l0,64.40945a4.92266,4.92266 0 0 1 -4.91708,4.9171l-48.64348,0a4.92267,4.92267 0 0 1 -4.9171,-4.9171z"/>
  <path id="svg_46" fill="#fff" d="m472.51688,233.03205l0,-41.40824a4.61014,4.61014 0 0 1 4.605,-4.605l41.80493,0a4.61034,4.61034 0 0 1 4.60525,4.605l0,57.31565a4.61033,4.61033 0 0 1 -4.60525,4.605l-25.89727,0a20.53573,20.53573 0 0 1 -20.51266,-20.51241z"/>
  <path id="svg_47" fill="#e6e6e6" d="m479.28563,203.17746a4.50491,4.50491 0 0 1 4.5,-4.5l29,0a4.5,4.5 0 0 1 0,9l-29,0a4.50492,4.50492 0 0 1 -4.5,-4.5z"/>
  <path id="svg_48" fill="#e6e6e6" d="m479.28563,217.17746a4.50491,4.50491 0 0 1 4.5,-4.5l29,0a4.5,4.5 0 0 1 0,9l-29,0a4.50492,4.50492 0 0 1 -4.5,-4.5z"/>
  <path id="svg_49" fill="#e6e6e6" d="m479.28563,231.17746a4.50491,4.50491 0 0 1 4.5,-4.5l29,0a4.5,4.5 0 0 1 0,9l-29,0a4.50492,4.50492 0 0 1 -4.5,-4.5z"/>
  <path id="svg_50" fill="#ffb6b6" d="m508.41267,263.59848a10.13237,10.13237 0 0 0 4.66868,-14.81878l35.27015,-32.04029l12.37292,-47.86177l-21.959,-1.827l-6.71257,37.558l-33.63217,41.39667a10.1873,10.1873 0 0 0 9.992,17.59314l-0.00001,0.00003z"/>
  <path id="svg_51" fill="#f2f2f2" d="m564.10804,125.65394s5.35214,0.07924 2.94135,11.16085c-1.93,8.87167 -9.25193,58.79662 -15.09576,69.96563a7.9599,7.9599 0 0 1 1.92766,9.56632l-24.42574,-9.47622c-2.129,-5.54113 1.44076,-7.26351 3.71864,-7.76067l-0.447,-17.381l3.50164,-44.30415l24.01145,-11.89672l3.86776,0.12596z"/>
  <path id="svg_52" fill="#ffb8b8" d="m571.30232,43.63612a31.64654,31.64654 0 0 1 -62.71487,-8.53552l0.06113,-0.44921a31.64654,31.64654 0 0 1 62.644,8.98341l0.00974,0.00132z"/>
  <path id="svg_53" fill="#2f2e41" d="m563.24785,59.9364c1.62516,-3.30126 3.29465,-6.84554 2.83793,-10.49668s-4.03735,-7.141 -7.55332,-6.05592c-2.10248,0.64886 -3.69154,2.725 -5.88931,2.83126c-3.024,0.14618 -4.75773,-3.31468 -5.699,-6.19213l-3.83342,-11.7191a31.70821,31.70821 0 0 1 -26.335,5.951c-3.55922,-0.81376 -7.155,-2.40036 -9.2428,-5.39556s-2.07527,-7.64129 0.78837,-9.9062c1.40412,-1.11055 3.273,-1.5325 4.61484,-2.71753a5.17113,5.17113 0 0 0 -4.12923,-8.99869l9.6522,-1.20635l-2.87587,-5.20135c2.07217,1.63353 4.9562,1.85321 7.55306,1.38563s5.04259,-1.53682 7.583,-2.24987c12.19585,-3.42314 26.3699,2.52874 32.4656,13.63276a12.35592,12.35592 0 0 1 13.47187,3.89c2.58387,3.27949 3.28656,7.65591 3.38667,11.8298a51.32416,51.32416 0 0 1 -5.23183,23.77477a19.47726,19.47726 0 0 1 -4.39512,6.23455a8.79662,8.79662 0 0 1 -7.06107,2.3092"/>
 </g>
</svg>